# xmcd
#
# Track frame offsets: 
#        150
#        26295
#        50254
#        65098
#        105776
#        123306
#        148772
#        165445
#        187044
#        203651
#
# Disc length: 2853 seconds
#
# Revision: 1
# Processed by: cddbd v1.5.2PL0 Copyright (c) Steve Scherf et al.
# Submitted via: ExactAudioCopy v1.0b4
#
DISCID=800b230a
DTITLE=Chris Bell and 100% Blues - The Best
DYEAR=2006
DGENRE=Rockin' Blues, Electric Blues
TTITLE0=Two Jobs
TTITLE1=Cold-Hearted Woman
TTITLE2=She Found Another Man
TTITLE3=Elevator To Heaven
TTITLE4=Wine Cooler
TTITLE5=Money Doesn't Grow On Trees
TTITLE6=It's a Shame
TTITLE7=24 Hours a Day
TTITLE8=That Ain't Right
TTITLE9=Cotton Pickin' Blues
EXTD=
EXTT0=
EXTT1=
EXTT2=
EXTT3=
EXTT4=
EXTT5=
EXTT6=
EXTT7=
EXTT8=
EXTT9=
PLAYORDER=
